<?xml version="1.0" standalone="no"?>
<!DOCTYPE svg PUBLIC "-//W3C//DTD SVG 20010904//EN"
 "http://www.w3.org/TR/2001/REC-SVG-20010904/DTD/svg10.dtd">
<svg version="1.0" xmlns="http://www.w3.org/2000/svg"
 width="1903.000000pt" height="1058.000000pt" viewBox="0 0 1903.000000 1058.000000"
 preserveAspectRatio="xMidYMid meet">

<g transform="translate(0.000000,1058.000000) scale(0.100000,-0.100000)"
fill="#000000" stroke="none">
<path d="M9400 10539 c-198 -100 -461 -486 -735 -1080 -130 -284 -293 -602
-445 -869 -181 -319 -241 -428 -548 -990 -145 -267 -303 -555 -350 -640 -298
-538 -401 -848 -402 -1199 0 -164 21 -309 66 -457 58 -192 102 -284 350 -729
55 -99 238 -452 407 -785 168 -333 399 -790 514 -1015 251 -496 247 -487 239
-519 -10 -42 -34 -30 -74 35 -20 34 -129 181 -241 328 -113 146 -251 327 -308
401 -57 74 -138 180 -182 235 -149 191 -438 611 -585 853 -230 380 -411 799
-505 1175 -52 206 -64 308 -58 511 5 208 19 285 98 550 82 274 96 367 61 399
-110 100 -1282 481 -2312 752 -797 210 -1376 319 -1529 289 -24 -5 -35 -15
-46 -40 -28 -68 -46 -192 -46 -321 1 -280 56 -521 271 -1189 56 -174 101 -345
160 -609 77 -346 200 -821 354 -1370 24 -88 79 -290 121 -450 98 -372 154
-559 217 -718 177 -451 396 -716 721 -872 221 -107 1048 -362 1472 -455 343
-75 393 -89 1210 -340 176 -54 381 -115 455 -135 159 -43 290 -92 290 -107 0
-28 -801 36 -1295 103 -648 87 -1279 227 -1735 384 -375 129 -637 259 -870
432 -264 195 -344 301 -430 568 -44 139 -92 277 -134 390 -25 68 -26 70 -58
67 -53 -4 -126 -31 -250 -93 -132 -66 -535 -296 -708 -404 -63 -39 -356 -210
-650 -380 -294 -169 -625 -361 -735 -426 -208 -122 -340 -195 -617 -339 -287
-149 -464 -284 -519 -395 -32 -67 -33 -171 -2 -230 62 -116 162 -193 489 -374
96 -53 117 -61 160 -60 122 3 121 5 -103 129 -327 181 -403 236 -454 324 -53
93 -34 167 66 258 128 115 189 153 525 328 124 64 347 188 495 274 321 187
421 245 920 533 209 121 423 247 476 280 95 60 401 238 595 346 94 52 255 127
274 127 14 0 65 -135 120 -315 58 -190 97 -282 161 -376 151 -225 549 -493
989 -667 687 -271 1568 -450 2725 -553 247 -22 754 -33 770 -17 11 11 -30 71
-78 116 -72 65 -162 103 -410 171 -79 22 -312 91 -518 155 -777 238 -786 241
-1064 300 -464 100 -1307 358 -1540 472 -232 113 -433 334 -575 629 -106 221
-168 408 -295 890 -40 154 -114 426 -163 605 -166 597 -216 793 -342 1345 -51
226 -86 347 -208 730 -85 268 -155 549 -178 710 -18 136 -15 346 8 430 l13 50
85 -3 c335 -11 1353 -256 2445 -587 645 -195 1206 -397 1205 -433 -1 -27 -36
-162 -78 -302 -91 -301 -120 -511 -102 -746 32 -424 249 -1020 558 -1534 142
-237 504 -766 601 -880 26 -30 58 -71 71 -90 25 -36 312 -410 498 -648 57 -74
122 -164 145 -200 72 -118 94 -135 210 -157 40 -7 73 -13 74 -12 1 2 -2 20 -7
42 -5 22 -10 71 -10 109 l0 68 -257 507 c-141 278 -394 778 -563 1111 -169
333 -353 686 -410 785 -255 444 -335 670 -347 980 -14 370 77 642 429 1280 63
116 236 431 383 700 148 270 347 630 443 800 201 357 336 614 418 800 81 183
278 570 353 695 194 322 368 500 487 500 58 0 107 -39 197 -158 144 -192 283
-413 505 -807 71 -126 178 -315 237 -420 59 -104 186 -343 283 -530 96 -187
207 -401 247 -476 137 -254 526 -1041 522 -1054 -6 -14 -74 -47 -252 -122
-239 -101 -303 -141 -449 -282 -449 -435 -787 -1316 -1045 -2726 -56 -300
-134 -798 -152 -965 -13 -117 -6 -284 15 -370 20 -83 69 -230 77 -230 9 0 77
159 123 285 20 55 153 449 296 875 144 426 289 859 324 962 35 102 76 239 91
305 72 311 138 569 175 680 105 318 232 554 384 712 140 145 236 193 676 338
501 166 916 286 1630 475 905 238 1251 339 1740 508 366 127 560 172 745 174
170 1 246 -29 290 -115 41 -78 28 -301 -31 -572 -53 -239 -109 -426 -289 -962
-191 -571 -282 -882 -444 -1515 -67 -262 -94 -345 -156 -477 -50 -105 -56
-113 -82 -113 -58 1 -244 31 -420 70 -339 74 -472 82 -728 44 -205 -30 -536
-125 -760 -218 -274 -114 -701 -343 -1015 -544 -127 -82 -337 -232 -499 -356
-448 -345 -793 -605 -1004 -757 -178 -128 -242 -179 -253 -203 -7 -17 -22 -44
-34 -61 -11 -16 -20 -34 -20 -39 0 -4 51 -6 113 -4 124 4 141 10 265 94 37 25
157 90 267 144 288 142 565 264 1430 631 317 134 469 209 765 376 281 159 390
215 522 272 255 109 426 151 625 151 210 0 347 -34 578 -144 174 -83 1047
-570 1980 -1104 989 -566 1124 -642 1344 -751 324 -163 441 -248 525 -384 43
-71 66 -144 66 -212 0 -28 -9 -41 -57 -85 -70 -62 -245 -182 -439 -300 l-144
-87 47 -7 c90 -12 98 -9 248 85 176 110 294 196 375 273 59 57 60 58 60 114 0
142 -57 269 -175 388 -102 102 -189 159 -450 291 -248 125 -378 198 -1375 768
-875 501 -1797 1015 -1955 1091 -355 170 -620 201 -963 113 -221 -57 -452
-161 -833 -377 -389 -219 -412 -230 -1149 -542 -793 -336 -1181 -520 -1418
-670 -82 -52 -72 -28 15 34 181 129 329 238 474 349 773 591 868 662 1061 790
297 198 757 449 1033 565 365 153 736 243 1005 243 134 1 223 -12 475 -66 183
-40 328 -62 433 -67 l72 -3 61 130 c79 171 110 259 170 495 138 537 281 1047
350 1245 370 1080 459 1425 447 1739 -4 98 -8 121 -32 169 -32 66 -83 110
-163 140 -49 18 -79 21 -198 21 -200 -1 -385 -41 -745 -162 -485 -164 -667
-221 -995 -311 -121 -34 -251 -70 -290 -81 -38 -11 -167 -45 -285 -76 -118
-31 -237 -62 -265 -69 -583 -157 -894 -244 -1160 -326 -290 -90 -716 -234
-807 -274 -254 -111 -417 -281 -576 -600 -118 -237 -196 -483 -296 -930 -32
-141 -74 -287 -127 -445 -44 -129 -198 -584 -341 -1010 -143 -426 -266 -790
-272 -808 -17 -49 -30 -33 -38 44 -14 132 11 349 102 894 254 1525 589 2474
1042 2946 136 142 216 193 458 294 145 60 262 120 305 154 l30 25 -242 483
c-133 266 -319 629 -412 808 -93 179 -210 405 -261 502 -89 171 -160 300 -492
883 -171 299 -388 636 -484 750 -89 104 -129 129 -217 133 -65 3 -78 0 -137
-29z"/>
<path d="M10777 933 c-15 -37 -14 -38 17 -61 88 -66 437 -213 881 -372 l190
-67 150 -7 c146 -6 149 -6 105 10 -25 9 -126 45 -225 79 -462 162 -905 337
-905 356 0 11 5 11 175 -1 696 -51 1550 -200 2220 -387 218 -62 266 -69 394
-58 l85 7 -74 24 c-627 203 -1512 389 -2235 468 -229 25 -519 46 -645 46
l-118 0 -15 -37z"/>
</g>
</svg>
