<?xml version="1.0" standalone="no"?>
<!DOCTYPE svg PUBLIC "-//W3C//DTD SVG 20010904//EN"
 "http://www.w3.org/TR/2001/REC-SVG-20010904/DTD/svg10.dtd">
<svg version="1.0" xmlns="http://www.w3.org/2000/svg"
 width="1883.000000pt" height="964.000000pt" viewBox="0 0 1883.000000 964.000000"
 preserveAspectRatio="xMidYMid meet">

<g transform="translate(0.000000,964.000000) scale(0.100000,-0.100000)"
fill="#000000" stroke="none">
<path d="M36 9597 c-52 -88 -31 -163 74 -260 65 -61 173 -127 447 -278 l172
-94 -44 -5 -45 -5 103 -54 c56 -30 246 -134 422 -231 1586 -878 2826 -1543
3037 -1629 304 -124 592 -125 942 -4 148 51 245 100 626 310 516 285 767 419
1061 568 292 147 432 208 584 253 105 31 252 59 261 49 5 -5 -73 -132 -222
-357 -46 -71 -84 -114 -151 -171 -233 -199 -506 -378 -1108 -724 -777 -448
-1162 -528 -2115 -440 -371 34 -429 36 -439 16 -5 -9 -30 -88 -56 -176 -26
-88 -59 -203 -75 -255 -15 -52 -71 -241 -125 -420 -327 -1092 -490 -1719 -610
-2350 -32 -164 -42 -337 -25 -400 35 -129 157 -155 495 -105 427 63 812 161
1515 385 644 206 838 262 1660 481 473 125 919 265 1110 346 274 118 427 252
533 467 61 123 96 227 178 521 39 137 121 403 184 590 62 187 150 457 195 600
262 833 431 1300 595 1641 67 140 145 264 166 264 30 0 4 -491 -47 -910 -139
-1142 -381 -2101 -685 -2716 -95 -194 -150 -273 -327 -471 -205 -231 -269
-281 -507 -397 -104 -52 -228 -108 -275 -126 -47 -18 -89 -37 -95 -42 -13 -11
26 -162 71 -272 99 -246 255 -540 569 -1071 144 -243 186 -320 330 -600 426
-831 618 -1173 767 -1366 137 -178 257 -196 402 -59 70 66 124 146 273 400
172 294 244 425 478 870 114 217 274 510 355 650 81 140 227 408 325 595 98
187 209 396 248 465 488 871 632 1168 687 1420 57 256 28 458 -113 790 -66
157 -295 616 -562 1125 -385 737 -462 886 -726 1420 -281 569 -338 692 -384
828 -32 97 -33 112 -2 96 53 -29 217 -218 631 -727 511 -629 657 -815 763
-967 42 -60 108 -153 147 -205 155 -207 302 -448 440 -720 120 -237 176 -366
241 -565 146 -442 168 -767 85 -1283 -28 -178 -50 -375 -50 -453 l0 -67 68
-27 c209 -84 791 -270 1392 -445 91 -26 244 -71 340 -99 787 -232 1487 -395
1752 -408 139 -7 183 7 228 75 52 78 63 137 57 287 -7 180 -51 340 -187 680
-93 234 -151 413 -581 1820 -290 947 -531 1656 -639 1880 -135 280 -314 464
-600 618 -208 112 -411 187 -980 362 -245 75 -653 206 -907 291 -403 134 -469
154 -525 154 -56 0 -97 12 -310 89 -457 166 -778 303 -850 363 l-28 23 20 43
19 42 63 0 c106 0 392 -19 608 -40 741 -73 1700 -269 2320 -473 l135 -45 -70
-1 -70 -2 140 -48 c501 -172 815 -335 1112 -578 204 -167 346 -346 474 -596
44 -87 86 -160 94 -163 20 -8 172 46 339 121 416 185 1739 874 2340 1218 l79
46 -48 3 -48 3 109 64 c225 132 432 274 517 355 32 31 37 42 37 79 0 24 -7 67
-15 95 l-16 52 -9359 0 c-8905 0 -9359 1 -9362 18 -3 12 -12 3 -32 -31z"/>
</g>
</svg>
