<?xml version="1.0" encoding="UTF-8"?>
<!DOCTYPE svg PUBLIC "-//W3C//DTD SVG 1.1//EN" "http://www.w3.org/Graphics/SVG/1.1/DTD/svg11.dtd">
<!-- Creator: CorelDRAW 2018 (64-Bit) -->
<svg xmlns="http://www.w3.org/2000/svg" xml:space="preserve" width="7.87339in" height="7.88535in" version="1.1" style="shape-rendering:geometricPrecision; text-rendering:geometricPrecision; image-rendering:optimizeQuality; fill-rule:evenodd; clip-rule:evenodd"
viewBox="0 0 7873.39 7885.35"
 xmlns:xlink="http://www.w3.org/1999/xlink">
 <defs>
  <style type="text/css">
   <![CDATA[
    .fil0 {fill:#E31E24}
   ]]>
  </style>
 </defs>
 <g id="Layer_x0020_1">
  <metadata id="CorelCorpID_0Corel-Layer"/>
  <path class="fil0" d="M3610.01 3942.4c-51.95,-30.12 -1505.81,-497.15 -1505.81,-497.15 0,0 -385.28,-25.94 -508.19,-568.7l-382.13 -1619.11c0,0 -74.49,-299.06 246.78,-163.83l1390.53 452c-489.39,593.18 494.03,1658.93 846.11,2174.97l-708.65 -1488.57c0,0 -176.98,-203.44 38.05,-636.22l841.74 -1476.04c0,0 154.39,-287.65 304.63,-19.06 221.22,400.7 466.99,940.3 697.57,1374.17 -719.54,79.18 -802.54,1541.49 -935.2,2142.09l567.29 -1572.22c0,0 42.23,-302.89 377.98,-357.26l1668.43 -437.97c0,0 421.98,-142.22 204.09,307.41l-409.28 1301.16c-656.75,-420.72 -1615.19,488.08 -2180.02,852.59l1442.39 -645.2c0,0 297.68,-218.78 652.49,-57.5l1507.9 906.48c0,0 231.93,152.28 11.78,277.26l-1337.47 661.91c-180.23,-717.92 -1540.8,-787.2 -2180.57,-928.08l1565.44 605.17c0,0 355.5,83.4 403.3,491.85l458.46 1550.4c0,0 134.7,375.21 -215.46,244.22l-1392.43 -438.31c391.3,-805.34 -472.43,-1579.35 -916.77,-2203.77l706.96 1516.33c0,0 198.36,237.8 -29.04,602.31l-823.44 1413.73c0,0 -164.73,388.41 -335.41,59.92l-660.54 -1315.34c800.82,-119.73 789.49,-1521.89 913.92,-2184.16l-513.85 1469.7c0,0 -62.63,420.93 -353.4,483.6l-1811.04 469.15c0,0 -257.87,55.04 -167.54,-189.69l412.87 -1399.16c829.49,322.66 1554.2,-483.23 2201.61,-930.15l-1421.06 697.83c0,0 -274.85,228.48 -603.69,37.77l-1615.57 -938.63c0,0 -170.66,-136.67 46.37,-229.48l1364.28 -728.93c-26.4,785.15 1564.3,827.49 2135.59,932.54z"/>
 </g>
</svg>
