<svg width="30" height="30" viewBox="0 0 30 30" fill="none" xmlns="http://www.w3.org/2000/svg">
<path d="M14.3475 28.4592L12.2623 29.3931C11.3554 29.7993 10.288 29.5133 9.70579 28.7081L8.36696 26.8567C8.19187 26.6146 7.92181 26.4587 7.62459 26.4281L5.3518 26.1944C4.36337 26.0927 3.58198 25.3113 3.48032 24.3229L3.24656 22.0501C3.21599 21.7529 3.06007 21.4828 2.81796 21.3077L0.966541 19.9689C0.161368 19.3866 -0.124642 18.3192 0.281531 17.4124L1.21549 15.3272C1.33762 15.0545 1.33762 14.7427 1.21549 14.47L0.281531 12.3848C-0.124642 11.478 0.161368 10.4106 0.966541 9.82835L2.81796 8.48951C3.06007 8.31443 3.21599 8.04437 3.24656 7.74715L3.48032 5.47436C3.58198 4.48593 4.36337 3.70454 5.3518 3.60288L7.62459 3.36912C7.92181 3.33855 8.19187 3.18263 8.36696 2.94051L9.70579 1.0891C10.288 0.283926 11.3554 -0.00208382 12.2623 0.40409L14.3475 1.33804C14.6201 1.46018 14.932 1.46018 15.2047 1.33804L17.2898 0.40409C18.1967 -0.00208382 19.2641 0.283926 19.8463 1.0891L21.1852 2.94051C21.3602 3.18263 21.6303 3.33855 21.9275 3.36912L24.2003 3.60288C25.1887 3.70454 25.9701 4.48593 26.0718 5.47436L26.3056 7.74715C26.3361 8.04437 26.492 8.31443 26.7342 8.48951L28.5856 9.82835C29.3907 10.4106 29.6768 11.478 29.2706 12.3848L28.3366 14.47C28.2145 14.7427 28.2145 15.0545 28.3366 15.3272L29.2706 17.4124C29.6768 18.3192 29.3907 19.3866 28.5856 19.9689L26.7342 21.3077C26.492 21.4828 26.3361 21.7529 26.3056 22.0501L26.0718 24.3229C25.9701 25.3113 25.1887 26.0927 24.2003 26.1944L21.9275 26.4281C21.6303 26.4587 21.3602 26.6146 21.1852 26.8567L19.8463 28.7081C19.2641 29.5133 18.1967 29.7993 17.2898 29.3931L15.2047 28.4592C14.932 28.3371 14.6201 28.3371 14.3475 28.4592Z" fill="#02677F"/>
<path d="M12.9281 21.6732L22.115 11.5012L19.6053 9.25342L12.5367 16.837L9.12899 13.522L6.87256 15.7698L12.9281 21.6732Z" fill="white"/>
</svg>
